<svg width="667" height="667" viewBox="0 0 667 667" fill="none" xmlns="http://www.w3.org/2000/svg">
<path d="M274.977 131.423L333.291 30.4206H215.879L158.349 130.069L100.034 231.071H216.662L158.349 332.075L100.034 433.078V434.434H216.662L274.977 333.43L333.29 232.426H216.662L274.977 131.423Z" fill="white"/>
<path d="M449.919 232.426H566.549L508.233 131.424L449.919 30.4197H333.291L391.606 131.424L449.919 232.426Z" fill="white"/>
<path d="M566.548 434.432L508.233 333.431L449.919 232.427H333.291L391.605 333.43L449.919 434.434H566.548V434.432Z" fill="white"/>
<path d="M508.234 535.437L449.92 434.433H333.292L391.605 535.436L449.918 636.439H566.548V636.437L508.234 535.437Z" fill="white"/>
<path d="M100.035 636.439H216.663L274.977 535.436L333.291 434.433H216.663L158.348 535.436L100.035 636.439Z" fill="white"/>
</svg>
