<svg width="667" height="667" viewBox="0 0 667 667" fill="none" xmlns="http://www.w3.org/2000/svg">
<path d="M318.876 332.997L211.311 270.892L103.751 208.797V332.997V457.197L211.311 395.099L318.876 332.997Z" fill="white"/>
<path d="M347.792 332.996L455.358 395.103L562.917 457.198V332.996V208.796L455.358 270.895L347.792 332.996Z" fill="white"/>
<path d="M442.006 134.249L334.448 72.1507L226.888 134.249L119.323 196.355L226.888 258.459L334.448 320.553V320.551L442.006 258.452L549.572 196.355L442.006 134.249Z" fill="white"/>
<path d="M442.006 408.214L334.448 346.116L226.888 408.214L119.323 470.319L226.888 532.423L334.448 594.516L442.006 532.416L549.572 470.319L442.006 408.214Z" fill="white"/>
</svg>
