<svg width="667" height="667" viewBox="0 0 667 667" fill="none" xmlns="http://www.w3.org/2000/svg">
<path d="M635.2 451.28L661.334 496.547H609.066H556.786L582.934 451.28L609.066 406.013L635.2 451.28Z" fill="white"/>
<path d="M582.934 360.746L609.067 406.013H556.787H504.519L530.654 360.746L556.787 315.479L582.934 360.746Z" fill="white"/>
<path d="M609.066 406.013L582.933 451.28L556.786 496.546L530.653 451.28L504.52 406.013H556.786H609.066Z" fill="white"/>
<path d="M530.654 270.214L556.787 315.48H504.519H452.254L478.387 270.214L504.519 224.947L530.654 270.214Z" fill="white"/>
<path d="M556.786 315.48L530.653 360.747L504.52 406.013L478.386 360.747L452.254 315.48H504.52H556.786Z" fill="white"/>
<path d="M521.893 451.853L547.693 496.547H496.08H444.48L470.28 451.853L496.08 407.173L521.893 451.853Z" fill="white"/>
<path d="M478.387 179.68L504.52 224.946H452.253H399.987L426.12 179.68L452.253 134.413L478.387 179.68Z" fill="white"/>
<path d="M504.519 224.947L478.386 270.213L452.254 315.48L426.119 270.213L399.987 224.947H452.254H504.519Z" fill="white"/>
<path d="M470.28 362.481L496.08 407.174H444.48H392.88L418.68 362.481L444.48 317.786L470.28 362.481Z" fill="white"/>
<path d="M496.079 407.173L470.279 451.853L444.481 496.547L418.679 451.853L392.881 407.173H444.481H496.079Z" fill="white"/>
<path d="M418.68 273.093L444.481 317.786H392.88H341.28L367.08 273.093L392.88 228.4L418.68 273.093Z" fill="white"/>
<path d="M444.481 317.786L418.679 362.481L392.881 407.173L367.079 362.481L341.281 317.786H392.881H444.481Z" fill="white"/>
<path d="M408.453 452.814L433.706 496.547H383.201H332.706L357.96 452.814L383.201 409.079L408.453 452.814Z" fill="white"/>
<path d="M358.84 179.68L384.975 224.946L358.84 270.213L332.707 315.48L306.573 270.213L280.44 224.946L306.573 179.68L332.707 134.413L358.84 179.68Z" fill="white"/>
<path d="M357.96 365.346L383.201 409.08H332.706H282.213L307.453 365.346L332.706 321.613L357.96 365.346Z" fill="white"/>
<path d="M383.201 409.079L357.959 452.814L332.706 496.547L307.453 452.814L282.214 409.079H332.706H383.201Z" fill="white"/>
<path d="M307.453 452.814L332.706 496.547H282.213H231.72L256.96 452.814L282.213 409.079L307.453 452.814Z" fill="white"/>
<path d="M298.44 273.093L324.24 317.786H272.64H221.027L246.827 273.093L272.64 228.4L298.44 273.093Z" fill="white"/>
<path d="M324.24 317.786L298.44 362.481L272.64 407.173L246.827 362.481L221.027 317.786H272.64H324.24Z" fill="white"/>
<path d="M246.827 362.481L272.64 407.174H221.027H169.427L195.227 362.481L221.027 317.786L246.827 362.481Z" fill="white"/>
<path d="M272.64 407.173L246.827 451.853L221.027 496.547L195.227 451.853L169.427 407.173H221.027H272.64Z" fill="white"/>
<path d="M238.92 179.68L265.053 224.946H212.787H160.507L186.653 179.68L212.787 134.413L238.92 179.68Z" fill="white"/>
<path d="M265.053 224.947L238.92 270.213L212.787 315.48L186.653 270.213L160.507 224.947H212.787H265.053Z" fill="white"/>
<path d="M195.227 451.853L221.027 496.547H169.427H117.827L143.627 451.853L169.427 407.173L195.227 451.853Z" fill="white"/>
<path d="M186.654 270.214L212.787 315.48H160.507H108.24L134.374 270.214L160.507 224.947L186.654 270.214Z" fill="white"/>
<path d="M212.786 315.48L186.653 360.747L160.506 406.013L134.373 360.747L108.24 315.48H160.506H212.786Z" fill="white"/>
<path d="M134.373 360.746L160.506 406.013H108.24H55.9731L82.1064 360.746L108.24 315.479L134.373 360.746Z" fill="white"/>
<path d="M160.507 406.013L134.373 451.28L108.24 496.546L82.1065 451.28L55.9732 406.013H108.24H160.507Z" fill="white"/>
<path d="M82.1068 451.28L108.24 496.547H55.9734H3.70679L29.8401 451.28L55.9734 406.013L82.1068 451.28Z" fill="white"/>
</svg>
